<svg xmlns="http://www.w3.org/2000/svg" width="682.667" height="682.667" preserveAspectRatio="xMidYMid meet" version="1.0" viewBox="0 0 512 512"><metadata>Created by potrace 1.11, written by Peter Selinger 2001-2013</metadata><g fill="#000" stroke="none"><path d="M2470 4191 l0 -68 79 -6 c44 -4 95 -13 113 -20 44 -19 95 -78 108 -126 7 -27 10 -350 8 -1023 l-3 -983 -22 -42 c-40 -73 -86 -97 -215 -109 l-68 -7 0 -68 0 -69 460 0 460 0 0 69 0 68 -57 7 c-86 10 -129 24 -163 52 -67 57 -65 39 -65 559 1 510 4 551 59 670 33 73 106 149 175 182 47 23 72 28 157 31 169 7 265 -36 327 -147 61 -107 60 -103 64 -828 l4 -663 295 0 294 0 0 70 c0 59 -3 70 -17 70 -63 0 -148 25 -180 53 -71 62 -67 33 -74 637 -5 518 -6 549 -27 623 -79 287 -279 420 -607 404 -165 -8 -256 -47 -360 -152 -33 -33 -71 -82 -85 -108 -14 -26 -27 -47 -30 -47 -3 0 -4 234 -2 520 l4 520 -316 0 -316 0 0 -69z" transform="translate(0.000000,512.000000) scale(0.100000,-0.100000)"/><path d="M2055 3583 c-57 -23 -134 -75 -179 -122 l-39 -40 -36 24 c-20 13 -72 36 -116 52 -74 25 -92 27 -235 28 -173 0 -225 -9 -338 -61 -91 -41 -194 -140 -235 -227 -90 -187 -90 -461 0 -630 35 -65 134 -167 191 -196 23 -12 42 -23 42 -25 0 -1 -25 -20 -57 -42 -101 -69 -163 -174 -163 -274 0 -93 55 -196 136 -253 l44 -31 -59 -16 c-128 -35 -251 -122 -305 -215 -38 -63 -59 -166 -52 -246 27 -302 272 -459 716 -459 592 1 923 250 896 677 -12 203 -88 327 -248 409 -95 49 -151 56 -498 63 -354 8 -365 9 -395 66 -40 74 -2 173 91 237 38 26 42 27 194 26 235 -1 362 39 484 152 113 107 166 245 166 435 0 159 -31 264 -109 380 l-20 30 27 14 c37 20 120 30 160 19 34 -9 72 -57 72 -90 0 -25 36 -23 90 5 118 59 118 242 0 304 -53 28 -163 31 -225 6z m-482 -246 c87 -36 137 -122 158 -276 14 -96 5 -309 -16 -378 -35 -117 -121 -183 -249 -191 -132 -8 -237 43 -286 138 -36 70 -53 193 -47 330 9 198 52 310 139 363 78 48 205 54 301 14z m258 -1665 c60 -20 101 -54 128 -107 22 -42 26 -62 25 -131 -1 -210 -96 -326 -316 -385 -89 -24 -354 -37 -438 -21 -135 25 -224 82 -264 167 -29 61 -42 173 -29 251 21 122 94 200 215 230 69 17 625 14 679 -4z" transform="translate(0.000000,512.000000) scale(0.100000,-0.100000)"/></g></svg>
